<svg xmlns="http://www.w3.org/2000/svg" width="193.38" height="48.451" viewBox="0 0 193.38 48.451">
  <g id="Logo-FALK-2022-standaard-blauw-RGB" transform="translate(0 -0.001)">
    <g id="Group_149" data-name="Group 149" transform="translate(62.592 10.833)">
      <g id="Group_148" data-name="Group 148" transform="translate(0 0.272)">
        <path id="Path_82" data-name="Path 82" d="M602.311,109.744h10.032L599.154,73.5H587.989L574.8,109.744h9.88l2.206-6.889h13.235Zm-12.6-15.7,3.43-10.666h.771l3.4,10.666Z" transform="translate(-550.552 -73.5)" fill="#032548"/>
        <path id="Path_83" data-name="Path 83" d="M424.15,82.232l.03,5.575,16.135.015-3.188,8.747H424.12l-.015,13.174h-9.8V73.5h28.04v8.732Z" transform="translate(-414.3 -73.5)" fill="#032548"/>
        <path id="Path_84" data-name="Path 84" d="M842.5,73.5h9.805l.015,27.224h15.621v9.019H842.5Z" transform="translate(-777.808 -73.5)" fill="#032548"/>
        <path id="Path_85" data-name="Path 85" d="M1049.131,109.744h12.041l-14.262-18.552L1060.054,73.5h-11.98l-8.9,13.25h-.771V73.5H1028.6l.015,36.244h9.805V96.57h1Z" transform="translate(-935.793 -73.5)" fill="#032548"/>
      </g>
      <path id="Path_86" data-name="Path 86" d="M1253.662,74.117c.212.242.408.483.62.725h-.544c-.2-.242-.378-.468-.574-.71h-.151v.71h-.453V72.894h.922a1.272,1.272,0,0,1,.408.06.545.545,0,0,1,.363.363.565.565,0,0,1-.061.514.482.482,0,0,1-.272.212,1.111,1.111,0,0,1-.212.06A.055.055,0,0,1,1253.662,74.117Zm-.65-.347h.453a.419.419,0,0,0,.136-.015.2.2,0,0,0,.2-.212.194.194,0,0,0-.091-.2.3.3,0,0,0-.166-.045h-.514C1253.013,73.453,1253.013,73.6,1253.013,73.77Zm.363,2.281a2.176,2.176,0,1,1,2.176-2.176A2.176,2.176,0,0,1,1253.375,76.051Zm0-3.792a1.617,1.617,0,1,0,1.617,1.617A1.618,1.618,0,0,0,1253.375,72.259Z" transform="translate(-1124.762 -71.7)" fill="#032548"/>
    </g>
    <g id="Group_150" data-name="Group 150" transform="translate(0 0.001)">
      <path id="Path_87" data-name="Path 87" d="M64.1,171.539l2.04-.74c3.022-5.8,9.261-8.763,9.442-8.9C69.04,163.26,64.357,168.623,64.1,171.539Z" transform="translate(-54.416 -137.441)" fill="#032548"/>
      <path id="Path_88" data-name="Path 88" d="M109.843,173.755a11.828,11.828,0,0,0-1.42,3.142,10.663,10.663,0,0,0-.423,2.946l.03-.015,1.828-.665a10.451,10.451,0,0,1,1.1-4.351,13.4,13.4,0,0,1,2.266-3.218,17.967,17.967,0,0,1,3.354-2.795,13.468,13.468,0,0,0-4.109,2.1A11.353,11.353,0,0,0,109.843,173.755Z" transform="translate(-91.684 -143.298)" fill="#032548"/>
      <path id="Path_89" data-name="Path 89" d="M30.079,157.013a32.771,32.771,0,0,1,4.064-1.813,25.283,25.283,0,0,0-5.137,1.3,22.329,22.329,0,0,0-4.17,2.055A18.592,18.592,0,0,0,21.709,161a12.211,12.211,0,0,0-2.009,2.463l3.852-1.405a15.281,15.281,0,0,1,3.037-2.871A27.271,27.271,0,0,1,30.079,157.013Z" transform="translate(-16.724 -131.753)" fill="#032548"/>
      <path id="Path_90" data-name="Path 90" d="M47.982,14.247C47.439,10.349,45.429,1.8,29.43.227,7.373-1.948.212,12.253,0,12.676.3,12.283,8.7,1.149,26.318,2.388,45.021,3.7,45.459,15.879,45.459,15.879c6.421,2.07,5.529,10.243,3.656,12.766C53.844,27.119,54.509,16.211,47.982,14.247Z" transform="translate(0 -0.001)" fill="#032548"/>
      <path id="Path_91" data-name="Path 91" d="M206.113,154.013c-1.949-1.42-6.632-2.478-12.3,1.178-7.765,5.031-7.025,16.316-5.605,21.74l3.173,1.148c-1.405-6.073-2.463-17.434,4.291-21.725,4.85-3.1,7.75-2.009,9.382-1.405a4.258,4.258,0,0,1,2.463,3.309S208.032,155.4,206.113,154.013Z" transform="translate(-159.007 -129.629)" fill="#032548"/>
      <path id="Path_92" data-name="Path 92" d="M215.2,125.734c16.407-1.178,16.316,4.215,16.316,4.215C232.725,121.262,215.2,125.734,215.2,125.734Z" transform="translate(-182.688 -105.761)" fill="#032548"/>
      <path id="Path_93" data-name="Path 93" d="M91.955,62.8a2.073,2.073,0,0,1,1.36-2.87c-.967,3.158,2.1,5.3,4.85,5.3,3.324,0,5.424-2.327,5.182-4.7a14.066,14.066,0,0,1,3.429,1.6c.045-2.523-9.669-8.536-25.275-2.493h.015a13.465,13.465,0,0,1,3.973-.091c2.04.272,2.976,1.239,4.306,3.55a6.8,6.8,0,0,0,7.055,3.158C94.916,66.052,92.559,64.858,91.955,62.8Zm3.792-3.339c.317-.03.65-.045,1-.06a2.039,2.039,0,0,0-.483,1.239,2.148,2.148,0,0,0,4.291.06,1.547,1.547,0,0,0-.076-.529.63.63,0,0,1-.635.589.616.616,0,0,1-.619-.635.443.443,0,0,1,.06-.242.5.5,0,0,1,.559-.257c.408.06.816.151,1.209.242a2.747,2.747,0,0,1,.5,1.586,3.343,3.343,0,0,1-6.632-.106A2.758,2.758,0,0,1,95.747,59.465Z" transform="translate(-69.187 -48.421)" fill="#032548"/>
    </g>
  </g>
</svg>
